<svg width="75" height="17" viewBox="0 0 75 17" fill="none" xmlns="http://www.w3.org/2000/svg">
<path fill-rule="evenodd" clip-rule="evenodd" d="M8.5719 14.073V16.5486C7.85032 16.7239 7.1509 16.8114 6.47462 16.8114C5.06101 16.8114 3.96351 16.4719 3.18161 15.7928C2.39996 15.1136 2.00902 14.095 2.00902 12.7366V8.20174H0.25V5.70436H2.00902V2.9657H5.05362V5.70436H8.21099V8.20174H5.05362V12.4738C5.05362 13.0872 5.21906 13.5216 5.54993 13.7773C5.88057 14.0329 6.40692 14.1605 7.1285 14.1605C7.30895 14.1605 7.79 14.1315 8.5719 14.073Z" fill="white"/>
<path fill-rule="evenodd" clip-rule="evenodd" d="M17.3241 5.7044V8.31131H16.5122C15.5949 8.31131 14.8657 8.54866 14.3243 9.02336C13.7832 9.49806 13.5124 10.2027 13.5124 11.1375V16.5486H10.468V5.7044H13.2645V7.01897C14.0313 6.05498 15.0535 5.57288 16.3317 5.57288C16.7077 5.57288 17.0383 5.61687 17.3241 5.7044Z" fill="white"/>
<path fill-rule="evenodd" clip-rule="evenodd" d="M19.1077 16.5481H22.1523V5.70386H19.1077V16.5481Z" fill="white"/>
<path fill-rule="evenodd" clip-rule="evenodd" d="M21.8646 1.03064C22.2088 1.34533 22.3809 1.73875 22.3809 2.21067C22.3809 2.66962 22.2088 3.05633 21.8646 3.37102C21.5203 3.68571 21.1051 3.84317 20.6193 3.84317C20.1332 3.84317 19.7215 3.68571 19.3842 3.37102C19.0466 3.05633 18.8781 2.66962 18.8781 2.21067C18.8781 1.73875 19.0466 1.34533 19.3842 1.03064C19.7215 0.715945 20.1332 0.558716 20.6193 0.558716C21.1051 0.558716 21.5203 0.715945 21.8646 1.03064Z" fill="white"/>
<path fill-rule="evenodd" clip-rule="evenodd" d="M33.3814 6.65743C34.133 7.4533 34.5092 8.50875 34.5092 9.82309V16.5488H31.487V10.2174C31.487 9.58944 31.2953 9.08186 30.912 8.69493C30.5284 8.30776 30.0285 8.11417 29.4121 8.11417C28.7956 8.11417 28.2884 8.30776 27.8898 8.69493C27.4915 9.08186 27.2922 9.58944 27.2922 10.2174V16.5488H24.2476V5.70456H27.044V6.69031C27.886 5.87244 28.9761 5.4635 30.3141 5.4635C31.6071 5.4635 32.6298 5.86155 33.3814 6.65743Z" fill="white"/>
<path fill-rule="evenodd" clip-rule="evenodd" d="M39.8294 8.44299C39.3483 8.83734 39.0177 9.37039 38.8372 10.0421H43.934C43.919 9.37039 43.6785 8.83734 43.2125 8.44299C42.7464 8.04864 42.1827 7.85135 41.5209 7.85135C40.8744 7.85135 40.3106 8.04864 39.8294 8.44299ZM46.6854 12.1234H38.8372C39.0327 12.81 39.4048 13.3393 39.9535 13.7117C40.5023 14.0843 41.1829 14.2704 41.9943 14.2704C43.0923 14.2704 44.1295 13.9053 45.1069 13.1752L46.3698 15.1907C45.0466 16.2714 43.5584 16.8118 41.9045 16.8118C40.1452 16.8118 38.6868 16.2676 37.529 15.1795C36.3714 14.0914 35.7926 12.7442 35.7926 11.1377C35.7926 9.54568 36.3526 8.20193 37.4725 7.10665C38.5929 6.01114 39.9798 5.4635 41.6337 5.4635C43.1824 5.4635 44.4454 5.94561 45.4225 6.90936C46.3999 7.87335 46.8885 9.07098 46.8885 10.5023C46.8885 11.0281 46.8208 11.5684 46.6854 12.1234Z" fill="white"/>
<path fill-rule="evenodd" clip-rule="evenodd" d="M55.9099 14.073V16.5486C55.1883 16.7239 54.4891 16.8114 53.8126 16.8114C52.399 16.8114 51.3015 16.4719 50.5198 15.7928C49.738 15.1136 49.347 14.095 49.347 12.7366V8.20174H47.588V5.70436H49.347V2.9657H52.3916V5.70436H55.549V8.20174H52.3916V12.4738C52.3916 13.0872 52.5571 13.5216 52.8879 13.7773C53.2186 14.0329 53.7449 14.1605 54.4665 14.1605C54.6469 14.1605 55.1282 14.1315 55.9099 14.073Z" fill="white"/>
<path fill-rule="evenodd" clip-rule="evenodd" d="M57.806 16.5478H60.8506V5.70361H57.806V16.5478Z" fill="white"/>
<path fill-rule="evenodd" clip-rule="evenodd" d="M60.5633 1.03064C60.9075 1.34533 61.0796 1.73875 61.0796 2.21067C61.0796 2.66962 60.9075 3.05633 60.5633 3.37102C60.219 3.68571 59.8038 3.84317 59.318 3.84317C58.8319 3.84317 58.4202 3.68571 58.0829 3.37102C57.7454 3.05633 57.5768 2.66962 57.5768 2.21067C57.5768 1.73875 57.7454 1.34533 58.0829 1.03064C58.4202 0.715945 58.8319 0.558716 59.318 0.558716C59.8038 0.558716 60.219 0.715945 60.5633 1.03064Z" fill="white"/>
<path opacity="0.6" fill-rule="evenodd" clip-rule="evenodd" d="M71.6567 10.1201L74.3873 7.46761L72.2421 5.38403L69.5117 8.03633L71.6567 10.1201Z" fill="white"/>
<path fill-rule="evenodd" clip-rule="evenodd" d="M74.3877 14.8845L64.6074 5.38403L62.4622 7.46761L66.2798 11.1761L62.4622 14.8845L64.6074 16.9683L68.425 13.2599L72.2425 16.9683L74.3877 14.8845Z" fill="white"/>
</svg>
