<svg width="56" height="12" viewBox="0 0 56 12" fill="none" xmlns="http://www.w3.org/2000/svg">
<path fill-rule="evenodd" clip-rule="evenodd" d="M43.4941 11.6602C43.1211 11.6602 42.7833 11.5695 42.4808 11.388C42.1783 11.1964 41.9313 10.9494 41.7398 10.6469C41.5583 10.3445 41.4675 10.0067 41.4675 9.63369V0H43.2823V9.57316C43.2823 9.65382 43.3076 9.7244 43.358 9.78489C43.4185 9.83533 43.484 9.86053 43.5546 9.86053H45.1881V11.6602H43.4941ZM2.02655 11.6602C1.65351 11.6602 1.3107 11.5695 0.998153 11.388C0.695681 11.1964 0.453707 10.9494 0.272224 10.6469C0.090741 10.3445 0 10.0067 0 9.63369V4.91516C0 4.54209 0.090741 4.20433 0.272224 3.90186C0.453707 3.5994 0.695681 3.35742 0.998153 3.17593C1.3107 2.98437 1.65351 2.88859 2.02655 2.88859H7.12317V0.0151236H8.9229V11.6602H2.02655ZM2.10217 9.86053H6.83583C6.9165 9.86053 6.98201 9.83533 7.03246 9.78489C7.09295 9.7244 7.12317 9.65382 7.12317 9.57316V4.97564C7.12317 4.89498 7.09295 4.82942 7.03246 4.77902C6.98201 4.71853 6.9165 4.68827 6.83583 4.68827H2.10217C2.02151 4.68827 1.95094 4.71853 1.89044 4.77902C1.84003 4.82942 1.81483 4.89498 1.81483 4.97564V9.57316C1.81483 9.65382 1.84003 9.7244 1.89044 9.78489C1.95094 9.83533 2.02151 9.86053 2.10217 9.86053ZM12.4563 11.6602C12.0833 11.6602 11.7455 11.5695 11.443 11.388C11.1406 11.1964 10.8935 10.9494 10.702 10.6469C10.5205 10.3445 10.4298 10.0067 10.4298 9.63369V4.91516C10.4298 4.54209 10.5205 4.20433 10.702 3.90186C10.8935 3.5994 11.1406 3.35742 11.443 3.17593C11.7455 2.98437 12.0833 2.88859 12.4563 2.88859H17.311C17.6941 2.88859 18.0369 2.98437 18.3394 3.17593C18.6418 3.35742 18.8838 3.5994 19.0653 3.90186C19.2467 4.20433 19.3375 4.54209 19.3375 4.91516V8.18182H12.2294V9.57316C12.2294 9.65382 12.2546 9.7244 12.305 9.78489C12.3656 9.83533 12.4361 9.86053 12.5168 9.86053H19.3375V11.6602H12.4563ZM12.2294 6.53333H17.5378V4.97564C17.5378 4.89498 17.5075 4.82942 17.4471 4.77902C17.3967 4.71853 17.3311 4.68827 17.2505 4.68827H12.5168C12.4361 4.68827 12.3656 4.71853 12.305 4.77902C12.2546 4.82942 12.2294 4.89498 12.2294 4.97564V6.53333ZM32.1049 11.388C32.4074 11.5695 32.7452 11.6602 33.1182 11.6602H37.9729C38.356 11.6602 38.6988 11.5695 39.0013 11.388C39.3038 11.1964 39.5457 10.9494 39.7272 10.6469C39.9087 10.3445 39.9995 10.0067 39.9995 9.63369V4.91516C39.9995 4.54209 39.9087 4.20433 39.7272 3.90186C39.5457 3.5994 39.3038 3.35742 39.0013 3.17593C38.6988 2.98437 38.356 2.88859 37.9729 2.88859H33.1182C32.7452 2.88859 32.4074 2.98437 32.1049 3.17593C31.8025 3.35742 31.5555 3.5994 31.3639 3.90186C31.1824 4.20433 31.0917 4.54209 31.0917 4.91516V9.63369C31.0917 10.0067 31.1824 10.3445 31.3639 10.6469C31.5555 10.9494 31.8025 11.1964 32.1049 11.388ZM37.9124 9.86053H33.1787C33.0981 9.86053 33.0275 9.83533 32.967 9.78489C32.9166 9.7244 32.8914 9.65382 32.8914 9.57316V4.97564C32.8914 4.89498 32.9166 4.82942 32.967 4.77902C33.0275 4.71853 33.0981 4.68827 33.1787 4.68827H37.9124C37.993 4.68827 38.0586 4.71853 38.109 4.77902C38.1695 4.82942 38.1997 4.89498 38.1997 4.97564V9.57316C38.1997 9.65382 38.1695 9.7244 38.109 9.78489C38.0586 9.83533 37.993 9.86053 37.9124 9.86053ZM47.3245 11.388C47.6374 11.5695 47.9801 11.6602 48.353 11.6602H55.2343V4.91516C55.2343 4.54209 55.1437 4.20433 54.9623 3.90186C54.7805 3.5994 54.5388 3.35742 54.2361 3.17593C53.9339 2.98437 53.5908 2.88859 53.2077 2.88859H46.3268V4.68827H53.1472C53.2281 4.68827 53.2934 4.71853 53.3441 4.77902C53.4045 4.82942 53.4348 4.89498 53.4348 4.97564V6.36698H46.3268V9.63369C46.3268 10.0067 46.4174 10.3445 46.5988 10.6469C46.7801 10.9494 47.0223 11.1964 47.3245 11.388ZM53.4348 9.86053H48.4134C48.333 9.86053 48.2623 9.83533 48.2019 9.78489C48.1516 9.7244 48.1263 9.65382 48.1263 9.57316V8.01547H53.4348V9.86053ZM29.9573 10.7787L26.4679 7.28929L29.9573 3.79989L28.736 2.5786L25.2465 6.068L21.7572 2.5786L20.5359 3.79989L24.0252 7.28929L20.5359 10.7787L21.7572 12L25.2465 8.51058L28.736 12L29.9573 10.7787Z" fill="black"/>
</svg>
